<?xml version="1.0" standalone="no"?>
<!DOCTYPE svg PUBLIC "-//W3C//DTD SVG 20010904//EN"
 "http://www.w3.org/TR/2001/REC-SVG-20010904/DTD/svg10.dtd">
<svg version="1.0" xmlns="http://www.w3.org/2000/svg"
 width="236.000000pt" height="246.000000pt" viewBox="0 0 236.000000 246.000000"
 preserveAspectRatio="xMidYMid meet">

<g transform="translate(0.000000,246.000000) scale(0.100000,-0.100000)"
fill="rgb(17,34,57,0.5)" stroke="none">
<path d="M192 1415 c-18 -8 -40 -11 -48 -8 -13 5 -15 0 -11 -33 4 -31 18 -50
72 -102 37 -35 64 -66 61 -70 -9 -9 -86 -7 -113 2 -21 8 -23 5 -23 -22 0 -28
4 -32 42 -43 35 -9 52 -8 95 5 48 16 56 16 104 0 48 -16 54 -16 105 0 50 16
56 16 105 0 47 -16 55 -16 103 -1 46 15 56 15 104 1 49 -15 58 -14 103 0 46
16 54 16 103 0 51 -16 57 -16 105 0 49 16 55 16 105 0 51 -16 57 -16 105 0 47
15 56 15 97 1 56 -19 63 -19 119 0 41 15 50 14 99 -1 51 -16 57 -16 105 0 48
15 55 15 99 1 49 -17 96 -14 142 10 21 11 28 11 44 0 31 -23 89 -27 137 -11
24 9 52 16 62 16 12 0 17 8 17 27 0 21 -18 46 -72 100 -57 58 -68 73 -55 79
19 7 83 1 110 -10 26 -12 24 50 -2 64 -29 15 -102 12 -135 -5 -27 -14 -34 -14
-68 0 -49 19 -101 19 -140 -1 -29 -15 -34 -15 -65 0 -42 20 -109 20 -147 1
-26 -14 -33 -14 -62 0 -42 20 -105 19 -147 -1 -31 -15 -36 -15 -65 0 -39 20
-104 21 -142 1 -25 -13 -32 -13 -64 0 -45 19 -97 19 -141 1 -31 -13 -39 -13
-70 0 -44 18 -96 18 -140 0 -31 -13 -39 -13 -70 0 -19 7 -50 14 -70 14 -20 0
-51 -7 -70 -14 -31 -13 -39 -13 -70 0 -19 7 -50 14 -70 14 -20 0 -51 -7 -70
-14 -31 -13 -39 -13 -70 0 -43 18 -100 17 -143 -1z m205 -127 c79 -78 82 -83
61 -91 -50 -19 -89 -1 -169 79 -43 43 -76 81 -73 86 3 4 26 8 51 8 43 0 49 -4
130 -82z m210 0 c84 -82 84 -83 57 -92 -45 -15 -93 9 -172 85 -40 38 -70 74
-67 79 4 6 27 10 52 10 43 0 49 -4 130 -82z m210 0 c78 -77 82 -83 61 -91 -49
-18 -90 1 -171 79 -43 41 -75 79 -72 84 3 6 27 10 52 10 43 0 49 -4 130 -82z
m204 5 c44 -42 79 -80 79 -84 0 -13 -38 -20 -74 -14 -40 8 -193 146 -182 164
4 6 28 11 53 11 43 0 49 -4 124 -77z m210 0 c44 -42 79 -80 79 -84 0 -5 -15
-11 -34 -14 -46 -9 -83 12 -168 95 -74 73 -74 78 1 79 41 1 48 -3 122 -76z
m213 -3 c66 -65 78 -82 66 -90 -43 -28 -110 3 -198 93 -68 70 -67 75 7 76 42
1 48 -3 125 -79z m207 3 c44 -42 79 -80 79 -84 0 -13 -40 -21 -75 -15 -23 5
-58 30 -114 83 -88 83 -89 93 -12 93 41 0 48 -5 122 -77z m212 -3 c67 -65 79
-82 67 -90 -20 -13 -66 -13 -93 1 -32 16 -167 151 -161 161 3 4 28 8 55 8 49
0 51 -2 132 -80z m135 66 c15 -8 56 -44 92 -81 53 -53 62 -67 50 -75 -20 -13
-67 -12 -93 1 -32 16 -167 151 -161 161 8 13 83 9 112 -6z"/>
</g>
</svg>
