<?xml version="1.0" standalone="no"?>
<!DOCTYPE svg PUBLIC "-//W3C//DTD SVG 20010904//EN"
 "http://www.w3.org/TR/2001/REC-SVG-20010904/DTD/svg10.dtd">
<svg version="1.0" xmlns="http://www.w3.org/2000/svg"
 width="236.000000pt" height="90.000000pt" viewBox="0 0 236.000000 90.000000"
 preserveAspectRatio="xMidYMid meet">

<g transform="translate(0.000000,90.000000) scale(0.100000,-0.100000)"
fill="rgba(97, 138, 188, 0.6)" stroke="none">
<path d="M2 678 l3 -223 28 -9 c49 -18 78 2 99 66 13 39 26 59 40 64 50 16 65
-62 33 -179 -15 -56 -16 -71 -5 -97 15 -37 56 -61 85 -50 53 20 63 73 35 186
-24 94 -21 141 10 169 24 22 36 14 45 -31 12 -66 72 -102 125 -74 10 5 26 31
36 57 22 60 32 73 55 73 59 0 74 -193 25 -329 -31 -89 -32 -115 -6 -141 27
-27 62 -25 90 5 21 23 22 29 14 92 -4 37 -9 106 -9 153 -2 158 23 214 98 227
30 5 37 2 52 -21 15 -23 16 -33 6 -65 -16 -56 -14 -88 9 -111 30 -30 67 -25
104 13 23 22 35 46 40 76 18 113 87 166 135 105 26 -33 26 -54 1 -104 -45 -89
-2 -163 75 -128 35 16 41 51 22 123 -16 57 -16 61 2 85 25 35 72 38 101 8 21
-22 22 -29 15 -128 -12 -191 -12 -212 7 -224 14 -8 22 -7 35 7 15 15 17 37 18
150 0 113 3 136 19 160 15 22 25 27 50 25 26 -3 35 -11 56 -54 33 -68 46 -81
81 -89 55 -12 62 -38 54 -194 -7 -135 -6 -139 15 -154 12 -8 30 -12 41 -10 34
9 43 49 27 128 -27 145 -5 307 48 342 38 24 94 19 122 -12 27 -32 28 -65 1
-135 -25 -66 -19 -111 19 -140 35 -28 88 -21 119 15 28 32 29 61 2 151 -19 63
-20 75 -8 100 10 20 23 30 42 32 23 3 30 -2 42 -33 18 -42 21 -90 10 -161 -7
-50 -7 -51 21 -61 62 -22 101 26 70 85 -26 51 -18 102 15 102 12 0 21 -9 24
-27 9 -44 29 -78 48 -81 16 -3 17 15 17 242 l0 246 -1180 0 -1180 0 2 -222z"/>
</g>
</svg>
