<?xml version="1.0" standalone="no"?>
<!DOCTYPE svg PUBLIC "-//W3C//DTD SVG 20010904//EN"
 "http://www.w3.org/TR/2001/REC-SVG-20010904/DTD/svg10.dtd">
<svg version="1.0" xmlns="http://www.w3.org/2000/svg"
 width="563.000000pt" height="375.000000pt" viewBox="0 0 563.000000 375.000000"
 preserveAspectRatio="xMidYMid meet">

<g transform="translate(0.000000,375.000000) scale(0.100000,-0.100000)"
fill="#000000" stroke="none">
<path d="M2811 2348 c-65 -10 -153 -45 -226 -89 -93 -56 -188 -148 -347 -334
-85 -99 -180 -204 -212 -232 -148 -135 -348 -197 -499 -154 -64 18 -144 90
-153 136 -22 116 200 295 366 295 51 0 64 18 57 79 -12 102 -84 192 -196 244
-161 76 -359 30 -521 -119 -68 -64 -123 -134 -276 -359 -126 -184 -199 -266
-287 -324 -93 -60 -165 -82 -266 -80 -84 2 -100 -5 -101 -39 0 -39 181 -41
281 -3 143 54 285 191 439 422 137 206 227 318 302 374 104 78 158 97 271 96
116 -1 226 -65 268 -156 10 -22 19 -45 19 -51 0 -7 -32 -19 -71 -28 -167 -38
-300 -147 -345 -285 -23 -72 -9 -120 55 -181 72 -70 148 -95 286 -95 95 1 119
5 177 27 37 15 93 43 125 64 72 45 218 191 346 346 210 252 374 365 557 385
106 11 228 -37 309 -121 l34 -35 -24 -4 c-13 -3 -51 -10 -83 -16 -146 -27
-300 -145 -345 -265 -42 -112 -22 -214 55 -289 165 -162 424 -154 681 21 32
22 143 119 247 215 242 226 327 284 471 322 133 34 266 6 360 -76 42 -38 44
-49 7 -49 -45 0 -170 -35 -244 -68 -73 -33 -141 -89 -165 -136 -25 -48 -20
-126 11 -190 49 -99 134 -149 251 -148 127 1 234 49 425 191 52 39 129 88 170
108 70 36 81 38 174 40 101 1 120 8 114 39 -4 23 -36 32 -114 33 -114 2 -199
-36 -394 -177 -239 -173 -403 -211 -515 -120 -39 33 -74 97 -75 136 0 44 32
93 84 127 68 45 216 94 311 102 97 8 105 20 65 90 -47 82 -135 140 -252 168
-85 20 -140 19 -233 -5 -150 -38 -264 -117 -510 -350 -174 -164 -283 -245
-391 -287 -58 -22 -85 -27 -169 -27 -118 -1 -163 11 -229 61 -65 49 -89 91
-90 156 0 68 29 129 97 196 90 91 220 139 346 127 107 -9 117 17 39 101 -144
152 -304 217 -467 191z"/>
</g>
</svg>
